<svg version="1.1" viewBox="0.0 0.0 500.0 500.0" fill="none" stroke="none" stroke-linecap="square" stroke-miterlimit="10" xmlns:xlink="http://www.w3.org/1999/xlink" xmlns="http://www.w3.org/2000/svg"><clipPath id="p.0"><path d="m0 0l500.0 0l0 500.0l-500.0 0l0 -500.0z" clip-rule="nonzero"/></clipPath><g clip-path="url(#p.0)"><path fill="#000000" fill-opacity="0.0" d="m0 0l500.0 0l0 500.0l-500.0 0z" fill-rule="evenodd"/><path fill="#000000" fill-opacity="0.0" d="m500.0 57.553806l0 0l-45.5748 0l0 126.834656" fill-rule="evenodd"/><path stroke="#ffffff" stroke-width="4.0" stroke-linejoin="round" stroke-linecap="butt" d="m500.0 57.553806l0 0l-45.5748 0l0 111.67465" fill-rule="evenodd"/><path fill="#ffffff" stroke="#ffffff" stroke-width="4.0" stroke-linecap="butt" d="m454.4252 182.38846c-3.6340332 0 -6.580017 -2.9459686 -6.580017 -6.580002c0 -3.6340332 2.945984 -6.580002 6.580017 -6.580002c3.6340332 0 6.5799866 2.9459686 6.5799866 6.580002c0 3.6340332 -2.9459534 6.580002 -6.5799866 6.580002z" fill-rule="nonzero"/><path fill="#000000" fill-opacity="0.0" d="m500.6168 73.89239l0 0.6142578l-25.259827 0l0 141.90543" fill-rule="evenodd"/><path stroke="#ffffff" stroke-width="4.0" stroke-linejoin="round" stroke-linecap="butt" d="m500.6168 73.89239l0 0.6142578l-25.259827 0l0 126.74543" fill-rule="evenodd"/><path fill="#ffffff" stroke="#ffffff" stroke-width="4.0" stroke-linecap="butt" d="m475.35696 214.41208c-3.6340332 0 -6.580017 -2.9459686 -6.580017 -6.580002c0 -3.6340332 2.945984 -6.580002 6.580017 -6.580002c3.6340332 0 6.5799866 2.9459686 6.5799866 6.580002c0 3.6340332 -2.9459534 6.580002 -6.5799866 6.580002z" fill-rule="nonzero"/><path fill="#000000" fill-opacity="0.0" d="m500.0 40.312336l-65.88977 0l0 62.80315l-65.88977 0" fill-rule="evenodd"/><path stroke="#ffffff" stroke-width="4.0" stroke-linejoin="round" stroke-linecap="butt" d="m500.0 40.312336l-65.88977 0l0 62.80315l-50.729767 0" fill-rule="evenodd"/><path fill="#ffffff" stroke="#ffffff" stroke-width="4.0" stroke-linecap="butt" d="m370.22046 103.115486c0 -3.6340332 2.945984 -6.580002 6.580017 -6.580002c3.6340332 0 6.5799866 2.9459686 6.5799866 6.580002c0 3.6340332 -2.9459534 6.580002 -6.5799866 6.580002c-3.6340332 0 -6.580017 -2.9459686 -6.580017 -6.580002z" fill-rule="nonzero"/></g></svg>