<svg version="1.1" viewBox="0.0 0.0 500.0 500.0" fill="none" stroke="none" stroke-linecap="square" stroke-miterlimit="10" xmlns:xlink="http://www.w3.org/1999/xlink" xmlns="http://www.w3.org/2000/svg"><clipPath id="p.0"><path d="m0 0l500.0 0l0 500.0l-500.0 0l0 -500.0z" clip-rule="nonzero"/></clipPath><g clip-path="url(#p.0)"><path fill="#000000" fill-opacity="0.0" d="m0 0l500.0 0l0 500.0l-500.0 0z" fill-rule="evenodd"/><path fill="#000000" fill-opacity="0.0" d="m20.332022 493.84384l0 -477.86023l472.28345 0l0 0.033449173" fill-rule="evenodd"/><path stroke="#ffffff" stroke-width="4.0" stroke-linejoin="round" stroke-linecap="butt" d="m20.332022 478.68384l0 -462.70023l457.12347 0" fill-rule="evenodd"/><path fill="#ffffff" stroke="#ffffff" stroke-width="4.0" stroke-linecap="butt" d="m20.332022 491.84384c-3.634035 0 -6.580001 -2.945984 -6.580001 -6.580017c0 -3.6340332 2.9459658 -6.5799866 6.580001 -6.5799866c3.6340332 0 6.579998 2.9459534 6.579998 6.5799866c0 3.6340332 -2.9459648 6.580017 -6.579998 6.580017z" fill-rule="nonzero"/><path fill="#ffffff" stroke="#ffffff" stroke-width="4.0" stroke-linecap="butt" d="m490.61548 16.012648c-0.0079956055 3.6340256 -2.9604797 6.5734844 -6.5944824 6.565466c-3.6340332 -0.008018494 -6.5734863 -2.960476 -6.56546 -6.5945015c0.0079956055 -3.6340246 2.9604492 -6.5734835 6.5944824 -6.565466c3.6340332 0.008018494 6.5734863 2.9604769 6.56546 6.5945015z" fill-rule="nonzero"/><path fill="#000000" fill-opacity="0.0" d="m59.114174 15.98294l0 0l0 45.574802l126.83465 0" fill-rule="evenodd"/><path stroke="#ffffff" stroke-width="4.0" stroke-linejoin="round" stroke-linecap="butt" d="m59.114174 15.98294l0 0l0 45.574802l111.674644 0" fill-rule="evenodd"/><path fill="#ffffff" stroke="#ffffff" stroke-width="4.0" stroke-linecap="butt" d="m183.94882 61.557743c0 3.6340294 -2.9459686 6.579998 -6.580002 6.579998c-3.6340332 0 -6.580002 -2.9459686 -6.580002 -6.579998c0 -3.6340332 2.9459686 -6.580002 6.580002 -6.580002c3.6340332 0 6.580002 2.9459686 6.580002 6.580002z" fill-rule="nonzero"/><path fill="#000000" fill-opacity="0.0" d="m74.50787 15.98294l0.61402893 0l0 24.629921l142.85054 0" fill-rule="evenodd"/><path stroke="#ffffff" stroke-width="4.0" stroke-linejoin="round" stroke-linecap="butt" d="m74.50787 15.98294l0.61402893 0l0 24.629921l127.69054 0" fill-rule="evenodd"/><path fill="#ffffff" stroke="#ffffff" stroke-width="4.0" stroke-linecap="butt" d="m215.97244 40.61286c0 3.6340332 -2.9459686 6.579998 -6.580002 6.579998c-3.6340332 0 -6.580002 -2.9459648 -6.580002 -6.579998c0 -3.6340332 2.9459686 -6.580002 6.580002 -6.580002c3.6340332 0 6.580002 2.9459686 6.580002 6.580002z" fill-rule="nonzero"/><path fill="#000000" fill-opacity="0.0" d="m41.872704 15.98294l0 65.88976l62.803146 0l0 65.88976" fill-rule="evenodd"/><path stroke="#ffffff" stroke-width="4.0" stroke-linejoin="round" stroke-linecap="butt" d="m41.872704 15.98294l0 65.88976l62.803146 0l0 50.72976" fill-rule="evenodd"/><path fill="#ffffff" stroke="#ffffff" stroke-width="4.0" stroke-linecap="butt" d="m104.67585 145.76247c-3.6340332 0 -6.579994 -2.9459686 -6.579994 -6.580002c0 -3.6340332 2.945961 -6.580002 6.579994 -6.580002c3.6340332 0 6.580002 2.9459686 6.580002 6.580002c0 3.6340332 -2.9459686 6.580002 -6.580002 6.580002z" fill-rule="nonzero"/></g></svg>